<?xml version="1.0" standalone="no"?>
<!DOCTYPE svg PUBLIC "-//W3C//DTD SVG 20010904//EN"
 "http://www.w3.org/TR/2001/REC-SVG-20010904/DTD/svg10.dtd">
<svg version="1.0" xmlns="http://www.w3.org/2000/svg"
 width="96.000000pt" height="96.000000pt" viewBox="0 0 96.000000 96.000000"
 preserveAspectRatio="xMidYMid meet">

<g transform="translate(0.000000,96.000000) scale(0.100000,-0.100000)"
fill="#2E5096" stroke="none">
<path d="M243 889 c-46 -13 -100 -71 -113 -121 -38 -138 93 -262 227 -214 l41
14 71 -107 71 -107 0 -87 0 -87 -60 0 -60 0 0 -30 0 -30 150 0 150 0 0 30 0
30 -60 0 -60 0 0 88 0 87 120 180 c92 138 120 188 120 213 l0 32 -190 0 c-153
0 -190 3 -190 13 0 24 -69 86 -108 96 -44 13 -65 13 -109 0z m121 -70 c37 -29
32 -39 -19 -39 -44 0 -45 -1 -45 -32 0 -20 12 -51 30 -78 28 -41 29 -46 13
-57 -40 -30 -121 -4 -148 47 -30 59 -10 136 43 164 39 22 95 20 126 -5z m406
-104 c0 -3 -7 -17 -16 -30 -16 -24 -20 -25 -125 -25 -60 0 -109 -2 -109 -5 0
-3 7 -17 16 -30 15 -23 23 -25 85 -25 38 0 69 -2 69 -5 0 -10 -113 -175 -120
-175 -7 0 -200 285 -200 295 0 3 90 5 200 5 110 0 200 -2 200 -5z"/>
</g>
</svg>
