<?xml version="1.0" standalone="no"?>
<!DOCTYPE svg PUBLIC "-//W3C//DTD SVG 20010904//EN"
 "http://www.w3.org/TR/2001/REC-SVG-20010904/DTD/svg10.dtd">
<svg version="1.0" xmlns="http://www.w3.org/2000/svg"
 width="96.000000pt" height="96.000000pt" viewBox="0 0 96.000000 96.000000"
 preserveAspectRatio="xMidYMid meet">

<g transform="translate(0.000000,96.000000) scale(0.100000,-0.100000)"
fill="#2E5096" stroke="none">
<path d="M370 889 c-105 -21 -220 -111 -268 -210 -112 -232 31 -505 286 -550
206 -36 406 108 443 319 36 202 -105 403 -310 442 -61 11 -88 11 -151 -1z m50
-83 c0 -18 7 -39 15 -46 22 -19 45 5 45 46 0 41 8 42 87 12 102 -38 188 -140
209 -248 6 -29 5 -30 -29 -30 -42 0 -66 -22 -47 -45 7 -8 28 -15 47 -15 34 0
35 -1 29 -30 -21 -108 -107 -210 -209 -248 -79 -30 -87 -29 -87 12 0 41 -23
65 -45 46 -8 -7 -15 -28 -15 -46 0 -41 -8 -42 -87 -12 -102 38 -188 140 -209
248 -6 29 -5 30 29 30 42 0 66 22 47 45 -7 8 -28 15 -47 15 -34 0 -35 1 -29
30 21 106 102 204 202 245 82 34 94 33 94 -9z"/>
<path d="M483 609 l-91 -41 -41 -95 c-23 -53 -40 -98 -38 -100 2 -2 47 15 100
38 l95 41 36 84 c49 112 49 114 40 113 -5 0 -50 -18 -101 -40z"/>
</g>
</svg>
