<?xml version="1.0" standalone="no"?>
<!DOCTYPE svg PUBLIC "-//W3C//DTD SVG 20010904//EN"
 "http://www.w3.org/TR/2001/REC-SVG-20010904/DTD/svg10.dtd">
<svg version="1.0" xmlns="http://www.w3.org/2000/svg"
 width="96.000000pt" height="96.000000pt" viewBox="0 0 96.000000 96.000000"
 preserveAspectRatio="xMidYMid meet">

<g transform="translate(0.000000,96.000000) scale(0.100000,-0.100000)"
fill="#2E5096" stroke="none">
<path d="M456 904 c-9 -8 -16 -20 -16 -25 0 -5 -9 -9 -20 -9 -41 0 -131 -43
-179 -86 -61 -55 -107 -145 -117 -226 -5 -46 -10 -58 -24 -58 -10 0 -23 -7
-30 -15 -22 -26 5 -45 66 -45 44 0 52 -3 47 -15 -3 -9 1 -35 9 -58 32 -90 40
-144 28 -182 -14 -43 -8 -65 19 -65 15 0 23 11 32 40 7 22 15 40 18 40 3 0 40
-12 83 -26 l76 -27 -14 -40 c-13 -36 -13 -43 0 -56 21 -21 41 -1 62 61 21 64
78 121 194 197 94 61 98 64 107 104 5 24 10 27 43 27 45 0 69 22 50 45 -7 8
-20 15 -29 15 -13 0 -20 16 -29 73 -15 88 -54 159 -117 215 -46 40 -135 82
-175 82 -11 0 -20 4 -20 9 0 12 -29 41 -40 41 -5 0 -16 -7 -24 -16z m159 -117
c91 -46 152 -134 162 -233 l6 -54 -303 0 -303 0 6 54 c12 119 95 217 217 257
49 16 162 4 215 -24z m-311 -374 c8 -16 28 -41 46 -58 50 -47 93 -42 231 28
119 60 159 70 159 40 -1 -11 -32 -37 -81 -68 -44 -27 -105 -74 -136 -103 l-56
-53 -91 32 c-50 18 -92 33 -94 34 -8 6 -42 150 -38 162 9 23 45 15 60 -14z
m201 -4 c-33 -16 -69 -29 -79 -29 -20 0 -66 36 -66 52 0 4 46 8 103 7 l102 -1
-60 -29z"/>
<path d="M324 115 c-4 -9 -2 -21 4 -27 16 -16 47 -5 47 17 0 26 -42 34 -51 10z"/>
</g>
</svg>
