<?xml version="1.0" standalone="no"?>
<!DOCTYPE svg PUBLIC "-//W3C//DTD SVG 20010904//EN"
 "http://www.w3.org/TR/2001/REC-SVG-20010904/DTD/svg10.dtd">
<svg version="1.0" xmlns="http://www.w3.org/2000/svg"
 width="64.000000pt" height="64.000000pt" viewBox="0 0 64.000000 64.000000"
 preserveAspectRatio="xMidYMid meet">

<g transform="translate(0.000000,64.000000) scale(0.100000,-0.100000)"
fill="#2E5096" stroke="none">
<path d="M216 584 c-94 -29 -176 -143 -176 -244 0 -133 127 -260 260 -260 133
0 260 127 260 260 0 104 -82 215 -181 244 -64 19 -99 19 -163 0z m203 -57 c61
-41 92 -94 98 -169 4 -52 1 -72 -17 -111 -22 -46 -40 -61 -40 -33 0 16 -46 67
-73 82 -16 9 -16 12 -1 42 32 65 -13 137 -86 137 -73 0 -118 -72 -86 -137 15
-30 15 -33 -1 -42 -27 -15 -73 -66 -73 -82 0 -28 -18 -13 -39 31 -52 110 -7
239 102 295 61 31 158 25 216 -13z m-77 -104 c38 -34 11 -103 -40 -103 -54 0
-81 62 -45 102 20 22 61 23 85 1z m53 -184 c53 -55 54 -73 0 -98 -27 -13 -65
-21 -95 -21 -30 0 -68 8 -95 21 -52 24 -53 42 -6 93 35 38 57 46 114 42 40 -3
55 -10 82 -37z"/>
</g>
</svg>
