<?xml version="1.0" encoding="UTF-8"?>
<svg xmlns="http://www.w3.org/2000/svg" xmlns:xlink="http://www.w3.org/1999/xlink" viewBox="0 0 32 32" width="32px" height="32px">
<g id="surface23751198">
<path style=" stroke:none;fill-rule:nonzero;fill:rgb(18.039216%,31.37255%,58.823532%);fill-opacity:1;" d="M 25 2 C 22.25 2 20 4.25 20 7 C 20 7.960938 20.289062 8.851562 20.757812 9.617188 L 16.109375 14 L 11.898438 14 C 11.429688 11.726562 9.40625 10 7 10 C 4.25 10 2 12.25 2 15 C 2 17.75 4.25 20 7 20 C 9.40625 20 11.429688 18.273438 11.898438 16 L 16.109375 16 L 20.8125 20.296875 C 20.304688 21.078125 20 22 20 23 C 20 25.75 22.25 28 25 28 C 27.75 28 30 25.75 30 23 C 30 20.25 27.75 18 25 18 C 23.96875 18 23 18.3125 22.203125 18.859375 L 18 15.015625 L 18 14.953125 L 22.125 11.078125 C 22.945312 11.648438 23.929688 12 25 12 C 27.75 12 30 9.75 30 7 C 30 4.25 27.75 2 25 2 Z M 25 4 C 26.671875 4 28 5.328125 28 7 C 28 8.671875 26.671875 10 25 10 C 23.328125 10 22 8.671875 22 7 C 22 5.328125 23.328125 4 25 4 Z M 7 12 C 8.671875 12 10 13.328125 10 15 C 10 16.671875 8.671875 18 7 18 C 5.328125 18 4 16.671875 4 15 C 4 13.328125 5.328125 12 7 12 Z M 25 20 C 26.671875 20 28 21.328125 28 23 C 28 24.671875 26.671875 26 25 26 C 23.328125 26 22 24.671875 22 23 C 22 21.328125 23.328125 20 25 20 Z M 25 20 "/>
</g>
</svg>
