<?xml version="1.0" standalone="no"?>
<!DOCTYPE svg PUBLIC "-//W3C//DTD SVG 20010904//EN"
 "http://www.w3.org/TR/2001/REC-SVG-20010904/DTD/svg10.dtd">
<svg version="1.0" xmlns="http://www.w3.org/2000/svg"
 width="30.000000pt" height="30.000000pt" viewBox="0 0 30.000000 30.000000"
 preserveAspectRatio="xMidYMid meet">

<g transform="translate(0.000000,30.000000) scale(0.100000,-0.100000)"
fill="#2E5096" stroke="none">
<path d="M202 258 c-6 -6 -12 -18 -12 -25 0 -19 -60 -47 -104 -48 -46 0 -68
-24 -50 -53 8 -11 24 -17 50 -17 48 -1 91 -23 107 -56 15 -29 54 -32 71 -6 18
28 -4 52 -50 52 -40 1 -104 28 -104 45 0 17 64 44 104 45 26 0 42 6 50 18 22
34 -32 75 -62 45z"/>
</g>
</svg>
