<?xml version="1.0" standalone="no"?>
<!DOCTYPE svg PUBLIC "-//W3C//DTD SVG 20010904//EN"
 "http://www.w3.org/TR/2001/REC-SVG-20010904/DTD/svg10.dtd">
<svg version="1.0" xmlns="http://www.w3.org/2000/svg"
 width="64.000000pt" height="64.000000pt" viewBox="0 0 64.000000 64.000000"
 preserveAspectRatio="xMidYMid meet">

<g transform="translate(0.000000,64.000000) scale(0.100000,-0.100000)"
fill="#2E5096" stroke="none">
<path d="M130 538 c-83 -43 -109 -144 -61 -237 30 -58 110 -142 189 -198 l63
-45 41 28 c72 50 173 151 200 201 34 63 42 103 29 151 -15 55 -44 88 -96 107
-55 21 -103 14 -145 -22 l-31 -26 -22 21 c-49 46 -102 52 -167 20z m137 -37
c17 -11 34 -29 38 -40 8 -27 22 -27 30 0 9 28 63 59 103 59 101 0 149 -94 102
-199 -22 -47 -146 -176 -193 -200 -37 -19 -62 -6 -154 85 -104 101 -135 183
-98 254 30 58 112 77 172 41z"/>
</g>
</svg>
